<svg version="1.1" xmlns="http://www.w3.org/2000/svg" viewBox="0 0 1096.0753369958063 944.0290014475083" width="2192.1506739916126" height="1888.0580028950167">
  <!-- svg-source:excalidraw -->
  
  <defs>
    <style class="style-fonts">
      @font-face {
        font-family: "Virgil";
        src: url("https://excalidraw.com/Virgil.woff2");
      }
      @font-face {
        font-family: "Cascadia";
        src: url("https://excalidraw.com/Cascadia.woff2");
      }
      @font-face {
        font-family: "Assistant";
        src: url("https://excalidraw.com/Assistant-Regular.woff2");
      }
    </style>
    
  </defs>
  <rect x="0" y="0" width="1096.0753369958063" height="944.0290014475083" fill="#ffffff"></rect><g stroke-linecap="round"><g transform="translate(527.8667869870865 637.9358147333444) rotate(0 250 -200)"><path d="M0 0 C83.33 -66.67, 416.67 -333.33, 500 -400 M0 0 C83.33 -66.67, 416.67 -333.33, 500 -400" stroke="#1e1e1e" stroke-width="2" fill="none"></path></g></g><mask></mask><g stroke-linecap="round" transform="translate(987.8667869870865 157.9358147333444) rotate(14.036243467926484 40 80)"><path d="M20 0 C29.75 0, 39.51 0, 60 0 M20 0 C29.51 0, 39.02 0, 60 0 M60 0 C73.33 0, 80 6.67, 80 20 M60 0 C73.33 0, 80 6.67, 80 20 M80 20 C80 59.49, 80 98.97, 80 140 M80 20 C80 47.1, 80 74.21, 80 140 M80 140 C80 153.33, 73.33 160, 60 160 M80 140 C80 153.33, 73.33 160, 60 160 M60 160 C51.06 160, 42.13 160, 20 160 M60 160 C49.93 160, 39.86 160, 20 160 M20 160 C6.67 160, 0 153.33, 0 140 M20 160 C6.67 160, 0 153.33, 0 140 M0 140 C0 94.31, 0 48.61, 0 20 M0 140 C0 111.47, 0 82.94, 0 20 M0 20 C0 6.67, 6.67 0, 20 0 M0 20 C0 6.67, 6.67 0, 20 0" stroke="#1e1e1e" stroke-width="2" fill="none"></path></g><g stroke-linecap="round" transform="translate(487.8667868510456 557.9358144665287) rotate(51.002924822787 40 80)"><path d="M20 0 C34.9 0, 49.81 0, 60 0 M20 0 C30.71 0, 41.43 0, 60 0 M60 0 C73.33 0, 80 6.67, 80 20 M60 0 C73.33 0, 80 6.67, 80 20 M80 20 C80 48.63, 80 77.25, 80 140 M80 20 C80 66.06, 80 112.11, 80 140 M80 140 C80 153.33, 73.33 160, 60 160 M80 140 C80 153.33, 73.33 160, 60 160 M60 160 C49.84 160, 39.67 160, 20 160 M60 160 C48.11 160, 36.21 160, 20 160 M20 160 C6.67 160, 0 153.33, 0 140 M20 160 C6.67 160, 0 153.33, 0 140 M0 140 C0 110.08, 0 80.16, 0 20 M0 140 C0 112.2, 0 84.4, 0 20 M0 20 C0 6.67, 6.67 0, 20 0 M0 20 C0 6.67, 6.67 0, 20 0" stroke="#1e1e1e" stroke-width="2" fill="none"></path></g><g stroke-linecap="round"><g transform="translate(15.379607657439351 15.227328205915114) rotate(0 256.7618388409896 310.63170289257306)"><path d="M0 0 C85.59 103.54, 427.94 517.72, 513.52 621.26" stroke="#1e1e1e" stroke-width="2.5" fill="none" stroke-dasharray="8 10"></path></g></g><mask></mask><g stroke-linecap="round"><g transform="translate(10.346852461967842 10) rotate(0 507.66902684128655 113.97393698666076)"><path d="M0 0 C169.22 37.99, 846.12 189.96, 1015.34 227.95" stroke="#1e1e1e" stroke-width="2.5" fill="none" stroke-dasharray="8 10"></path></g></g><mask></mask><g stroke-linecap="round"><g transform="translate(1027.2972242276755 235.66873446406294) rotate(0 19.231853115596778 -75.24431592202643)"><path d="M0 0 C6.41 -25.08, 32.05 -125.41, 38.46 -150.49 M0 0 C6.41 -25.08, 32.05 -125.41, 38.46 -150.49" stroke="#e03131" stroke-width="2" fill="none"></path></g><g transform="translate(1027.2972242276755 235.66873446406294) rotate(0 19.231853115596778 -75.24431592202643)"><path d="M40.93 -125.61 C40 -134.95, 39.08 -144.3, 38.46 -150.49 M40.93 -125.61 C40.21 -132.89, 39.49 -140.18, 38.46 -150.49" stroke="#e03131" stroke-width="2" fill="none"></path></g><g transform="translate(1027.2972242276755 235.66873446406294) rotate(0 19.231853115596778 -75.24431592202643)"><path d="M24.36 -129.85 C29.66 -137.6, 34.96 -145.35, 38.46 -150.49 M24.36 -129.85 C28.49 -135.89, 32.62 -141.93, 38.46 -150.49" stroke="#e03131" stroke-width="2" fill="none"></path></g></g><mask></mask><g stroke-linecap="round"><g transform="translate(432.18884141749686 982.4897183791243) rotate(13.597917961384331 152.0553033640873 -453.4882494590583)"><path d="M0 0 C50.69 -94.63, 267.63 -416.64, 304.11 -567.8 C340.6 -718.96, 233.11 -850.45, 218.91 -906.98 M0 0 C50.69 -94.63, 267.63 -416.64, 304.11 -567.8 C340.6 -718.96, 233.11 -850.45, 218.91 -906.98" stroke="#e03131" stroke-width="2" fill="none"></path></g></g><mask></mask><g stroke-linecap="round"><g transform="translate(758.9167697654586 453.3433482304523) rotate(0 -374.4583848827293 -221.5685868566439)"><path d="M0 0 C-124.82 -73.86, -624.1 -369.28, -748.92 -443.14 M0 0 C-124.82 -73.86, -624.1 -369.28, -748.92 -443.14" stroke="#e03131" stroke-width="2" fill="none"></path></g></g><mask></mask></svg>