<svg version="1.1" viewBox="0.0 0.0 960.0 720.0" fill="none" stroke="none" stroke-linecap="square" stroke-miterlimit="10" xmlns:xlink="http://www.w3.org/1999/xlink" xmlns="http://www.w3.org/2000/svg"><clipPath id="p.0"><path d="m0 0l960.0 0l0 720.0l-960.0 0l0 -720.0z" clip-rule="nonzero"/></clipPath><g clip-path="url(#p.0)"><path fill="#000000" fill-opacity="0.0" d="m0 0l960.0 0l0 720.0l-960.0 0z" fill-rule="evenodd"/><path fill="#132e37" d="m0 0l960.0 0l0 720.0l-960.0 0z" fill-rule="evenodd"/><path fill="#6bff8a" d="m95.859375 377.28l-11.03125 0l-10.4375 -13.96875l-2.109375 2.546875l0 11.421875l-9.0 0l0 -34.90625l9.0 0l0 15.796875l12.46875 -15.796875l10.4375 0l-13.640625 16.15625l14.3125 18.75zm29.882812 -11.609375l-19.3125 0q0.1875 3.09375 2.359375 4.734375q2.171875 1.640625 6.390625 1.640625q2.671875 0 5.171875 -0.953125q2.515625 -0.96875 3.96875 -2.0625l0.9375 0l0 6.765625q-2.859375 1.15625 -5.390625 1.671875q-2.53125 0.515625 -5.609375 0.515625q-7.921875 0 -12.140625 -3.5625q-4.21875 -3.5625 -4.21875 -10.15625q0 -6.515625 4.0 -10.3125q4.0 -3.8125 10.953125 -3.8125q6.421875 0 9.65625 3.25q3.234375 3.234375 3.234375 9.328125l0 2.953125zm-8.390625 -4.9375q-0.0625 -2.65625 -1.3125 -3.984375q-1.234375 -1.34375 -3.859375 -1.34375q-2.4375 0 -4.015625 1.265625q-1.5625 1.265625 -1.75 4.0625l10.9375 0zm40.265625 4.9375l-19.3125 0q0.1875 3.09375 2.359375 4.734375q2.171875 1.640625 6.390625 1.640625q2.671875 0 5.171875 -0.953125q2.515625 -0.96875 3.96875 -2.0625l0.9375 0l0 6.765625q-2.859375 1.15625 -5.390625 1.671875q-2.53125 0.515625 -5.609375 0.515625q-7.921875 0 -12.140625 -3.5625q-4.21875 -3.5625 -4.21875 -10.15625q0 -6.515625 4.0 -10.3125q4.0 -3.8125 10.953125 -3.8125q6.421875 0 9.65625 3.25q3.234375 3.234375 3.234375 9.328125l0 2.953125zm-8.390625 -4.9375q-0.0625 -2.65625 -1.3125 -3.984375q-1.234375 -1.34375 -3.859375 -1.34375q-2.4375 0 -4.015625 1.265625q-1.5625 1.265625 -1.75 4.0625l10.9375 0zm41.8125 3.015625q0 3.265625 -1.0 5.9375q-0.984375 2.671875 -2.609375 4.40625q-1.6875 1.828125 -3.828125 2.765625q-2.125 0.9375 -4.5625 0.9375q-2.25 0 -3.828125 -0.484375q-1.5625 -0.484375 -3.203125 -1.34375l0 10.96875l-8.4375 0l0 -35.984375l8.4375 0l0 2.75q1.953125 -1.546875 3.96875 -2.5q2.03125 -0.96875 4.6875 -0.96875q4.921875 0 7.640625 3.609375q2.734375 3.609375 2.734375 9.90625zm-8.6875 0.171875q0 -3.84375 -1.3125 -5.578125q-1.3125 -1.734375 -4.15625 -1.734375q-1.1875 0 -2.453125 0.359375q-1.265625 0.359375 -2.421875 1.046875l0 13.234375q0.84375 0.328125 1.796875 0.421875q0.96875 0.09375 1.90625 0.09375q3.359375 0 5.0 -1.953125q1.640625 -1.953125 1.640625 -5.890625zm73.171875 -12.96875l-8.15625 26.328125l-8.953125 0l-5.375 -17.75l-5.265625 17.75l-9.078125 0l-8.078125 -26.328125l8.859375 0l4.5 18.140625l5.625 -18.140625l7.46875 0l5.34375 18.140625l4.4375 -18.140625l8.671875 0zm31.9375 13.171875q0 6.5 -3.78125 10.25q-3.78125 3.734375 -10.625 3.734375q-6.84375 0 -10.640625 -3.734375q-3.78125 -3.75 -3.78125 -10.25q0 -6.53125 3.8125 -10.25q3.8125 -3.734375 10.609375 -3.734375q6.890625 0 10.640625 3.75q3.765625 3.75 3.765625 10.234375zm-10.375 6.40625q0.8125 -1.015625 1.21875 -2.421875q0.421875 -1.421875 0.421875 -3.9375q0 -2.3125 -0.421875 -3.875q-0.421875 -1.578125 -1.171875 -2.515625q-0.75 -0.96875 -1.8125 -1.359375q-1.046875 -0.40625 -2.265625 -0.40625q-1.21875 0 -2.171875 0.328125q-0.953125 0.328125 -1.8125 1.3125q-0.78125 0.921875 -1.234375 2.515625q-0.453125 1.59375 -0.453125 4.0q0 2.15625 0.390625 3.75q0.40625 1.578125 1.171875 2.53125q0.75 0.921875 1.796875 1.34375q1.046875 0.421875 2.375 0.421875q1.15625 0 2.1875 -0.390625q1.046875 -0.390625 1.78125 -1.296875zm35.5 -11.53125l-0.75 0q-0.53125 -0.1875 -1.734375 -0.28125q-1.1875 -0.09375 -1.984375 -0.09375q-1.8125 0 -3.203125 0.234375q-1.375 0.234375 -2.96875 0.796875l0 17.625l-8.4375 0l0 -26.328125l8.4375 0l0 3.875q2.796875 -2.390625 4.859375 -3.171875q2.0625 -0.796875 3.796875 -0.796875q0.4375 0 1.0 0.03125q0.5625 0.015625 0.984375 0.0625l0 8.046875zm32.71875 18.28125l-9.8125 0l-7.390625 -11.46875l-2.296875 2.796875l0 8.671875l-8.4375 0l0 -36.46875l8.4375 0l0 21.765625l9.09375 -11.625l9.734375 0l-9.46875 11.34375l10.140625 14.984375zm12.703125 0l-8.4375 0l0 -26.328125l8.4375 0l0 26.328125zm0.234375 -30.078125l-8.90625 0l0 -6.390625l8.90625 0l0 6.390625zm34.171875 30.078125l-8.484375 0l0 -13.0625q0 -1.59375 -0.171875 -3.171875q-0.15625 -1.578125 -0.546875 -2.328125q-0.46875 -0.875 -1.375 -1.265625q-0.90625 -0.40625 -2.515625 -0.40625q-1.15625 0 -2.34375 0.375q-1.171875 0.375 -2.5625 1.203125l0 18.65625l-8.4375 0l0 -26.328125l8.4375 0l0 2.90625q2.25 -1.75 4.328125 -2.6875q2.078125 -0.9375 4.609375 -0.9375q4.265625 0 6.65625 2.484375q2.40625 2.484375 2.40625 7.421875l0 17.140625zm33.351562 -3.03125q0 3.71875 -1.0625 6.25q-1.046875 2.53125 -2.9375 3.953125q-1.90625 1.453125 -4.59375 2.09375q-2.671875 0.65625 -6.046875 0.65625q-2.75 0 -5.40625 -0.328125q-2.65625 -0.328125 -4.609375 -0.796875l0 -6.59375l1.03125 0q1.546875 0.609375 3.765625 1.109375q2.234375 0.515625 4.0 0.515625q2.34375 0 3.796875 -0.4375q1.46875 -0.4375 2.25 -1.234375q0.71875 -0.75 1.046875 -1.921875q0.328125 -1.171875 0.328125 -2.8125l0 -0.5q-1.515625 1.25 -3.375 1.984375q-1.84375 0.71875 -4.125 0.71875q-5.53125 0 -8.53125 -3.328125q-3.0 -3.328125 -3.0 -10.125q0 -3.265625 0.90625 -5.625q0.921875 -2.375 2.59375 -4.125q1.546875 -1.640625 3.796875 -2.546875q2.265625 -0.921875 4.640625 -0.921875q2.125 0 3.875 0.5q1.75 0.5 3.171875 1.390625l0.3125 -1.171875l8.171875 0l0 23.296875zm-8.4375 -5.265625l0 -11.9375q-0.71875 -0.296875 -1.78125 -0.46875q-1.046875 -0.1875 -1.890625 -0.1875q-3.328125 0 -5.0 1.921875q-1.65625 1.90625 -1.65625 5.328125q0 3.796875 1.40625 5.296875q1.421875 1.5 4.21875 1.5q1.265625 0 2.484375 -0.390625q1.21875 -0.40625 2.21875 -1.0625zm59.71875 -4.859375q0 6.5 -3.78125 10.25q-3.78125 3.734375 -10.625 3.734375q-6.84375 0 -10.640625 -3.734375q-3.78125 -3.75 -3.78125 -10.25q0 -6.53125 3.8125 -10.25q3.8125 -3.734375 10.609375 -3.734375q6.890625 0 10.640625 3.75q3.765625 3.75 3.765625 10.234375zm-10.375 6.40625q0.8125 -1.015625 1.21875 -2.421875q0.421875 -1.421875 0.421875 -3.9375q0 -2.3125 -0.421875 -3.875q-0.421875 -1.578125 -1.171875 -2.515625q-0.75 -0.96875 -1.8125 -1.359375q-1.046875 -0.40625 -2.265625 -0.40625q-1.21875 0 -2.171875 0.328125q-0.953125 0.328125 -1.8125 1.3125q-0.78125 0.921875 -1.234375 2.515625q-0.453125 1.59375 -0.453125 4.0q0 2.15625 0.390625 3.75q0.40625 1.578125 1.171875 2.53125q0.75 0.921875 1.796875 1.34375q1.046875 0.421875 2.375 0.421875q1.15625 0 2.1875 -0.390625q1.046875 -0.390625 1.78125 -1.296875zm42.859375 6.75l-8.484375 0l0 -13.0625q0 -1.59375 -0.171875 -3.171875q-0.15625 -1.578125 -0.546875 -2.328125q-0.46875 -0.875 -1.375 -1.265625q-0.90625 -0.40625 -2.515625 -0.40625q-1.15625 0 -2.34375 0.375q-1.171875 0.375 -2.5625 1.203125l0 18.65625l-8.4375 0l0 -26.328125l8.4375 0l0 2.90625q2.25 -1.75 4.328125 -2.6875q2.078125 -0.9375 4.609375 -0.9375q4.265625 0 6.65625 2.484375q2.40625 2.484375 2.40625 7.421875l0 17.140625zm50.601562 0l-8.484375 0l0 -13.0625q0 -1.59375 -0.171875 -3.171875q-0.15625 -1.578125 -0.546875 -2.328125q-0.46875 -0.875 -1.375 -1.265625q-0.90625 -0.40625 -2.515625 -0.40625q-1.15625 0 -2.34375 0.375q-1.171875 0.375 -2.5625 1.203125l0 18.65625l-8.4375 0l0 -36.46875l8.4375 0l0 13.046875q2.25 -1.75 4.328125 -2.6875q2.078125 -0.9375 4.609375 -0.9375q4.265625 0 6.65625 2.484375q2.40625 2.484375 2.40625 7.421875l0 17.140625zm23.695312 -6.875l0 -5.484375q-1.703125 0.140625 -3.703125 0.390625q-1.984375 0.25 -3.015625 0.578125q-1.265625 0.390625 -1.9375 1.15625q-0.671875 0.765625 -0.671875 2.0q0 0.828125 0.140625 1.34375q0.140625 0.515625 0.703125 0.984375q0.546875 0.46875 1.296875 0.6875q0.75 0.21875 2.34375 0.21875q1.265625 0 2.5625 -0.515625q1.296875 -0.515625 2.28125 -1.359375zm0 4.078125q-0.671875 0.515625 -1.6875 1.25q-1.0 0.71875 -1.890625 1.140625q-1.25 0.578125 -2.59375 0.84375q-1.328125 0.265625 -2.921875 0.265625q-3.75 0 -6.28125 -2.3125q-2.53125 -2.328125 -2.53125 -5.9375q0 -2.890625 1.28125 -4.71875q1.296875 -1.828125 3.671875 -2.875q2.34375 -1.0625 5.8125 -1.5q3.46875 -0.453125 7.1875 -0.65625l0 -0.140625q0 -2.1875 -1.78125 -3.015625q-1.78125 -0.828125 -5.25 -0.828125q-2.078125 0 -4.453125 0.734375q-2.359375 0.734375 -3.390625 1.140625l-0.78125 0l0 -6.359375q1.34375 -0.34375 4.34375 -0.828125q3.015625 -0.484375 6.046875 -0.484375q7.1875 0 10.390625 2.21875q3.203125 2.21875 3.203125 6.953125l0 17.90625l-8.375 0l0 -2.796875zm35.203125 -15.484375l-0.75 0q-0.53125 -0.1875 -1.734375 -0.28125q-1.1875 -0.09375 -1.984375 -0.09375q-1.8125 0 -3.203125 0.234375q-1.375 0.234375 -2.96875 0.796875l0 17.625l-8.4375 0l0 -26.328125l8.4375 0l0 3.875q2.796875 -2.390625 4.859375 -3.171875q2.0625 -0.796875 3.796875 -0.796875q0.4375 0 1.0 0.03125q0.5625 0.015625 0.984375 0.0625l0 8.046875zm30.375 18.28125l-8.4375 0l0 -2.75q-2.171875 1.78125 -4.078125 2.640625q-1.890625 0.84375 -4.375 0.84375q-4.8125 0 -7.703125 -3.703125q-2.875 -3.71875 -2.875 -10.0q0 -3.34375 0.96875 -5.9375q0.984375 -2.59375 2.671875 -4.4375q1.59375 -1.765625 3.859375 -2.734375q2.28125 -0.96875 4.546875 -0.96875q2.375 0 3.875 0.5q1.515625 0.5 3.109375 1.28125l0 -11.203125l8.4375 0l0 36.46875zm-8.4375 -7.265625l0 -12.921875q-0.890625 -0.375 -1.875 -0.53125q-0.984375 -0.171875 -1.796875 -0.171875q-3.328125 0 -5.0 2.078125q-1.65625 2.078125 -1.65625 5.75q0 3.875 1.328125 5.625q1.34375 1.734375 4.296875 1.734375q1.140625 0 2.421875 -0.421875q1.296875 -0.4375 2.28125 -1.140625zm49.640625 7.03125q-1.359375 0.359375 -2.890625 0.546875q-1.515625 0.203125 -3.71875 0.203125q-4.921875 0 -7.328125 -1.984375q-2.390625 -2.0 -2.390625 -6.828125l0 -12.3125l-3.46875 0l0 -5.71875l3.46875 0l0 -7.515625l8.4375 0l0 7.515625l7.890625 0l0 5.71875l-7.890625 0l0 9.328125q0 1.390625 0.015625 2.421875q0.03125 1.03125 0.375 1.84375q0.328125 0.828125 1.15625 1.3125q0.84375 0.46875 2.4375 0.46875q0.65625 0 1.71875 -0.28125q1.0625 -0.28125 1.484375 -0.515625l0.703125 0l0 5.796875zm31.476562 0.234375l-8.484375 0l0 -13.0625q0 -1.59375 -0.171875 -3.171875q-0.15625 -1.578125 -0.546875 -2.328125q-0.46875 -0.875 -1.375 -1.265625q-0.90625 -0.40625 -2.515625 -0.40625q-1.15625 0 -2.34375 0.375q-1.171875 0.375 -2.5625 1.203125l0 18.65625l-8.4375 0l0 -36.46875l8.4375 0l0 13.046875q2.25 -1.75 4.328125 -2.6875q2.078125 -0.9375 4.609375 -0.9375q4.265625 0 6.65625 2.484375q2.40625 2.484375 2.40625 7.421875l0 17.140625zm16.195312 0l-8.4375 0l0 -26.328125l8.4375 0l0 26.328125zm0.234375 -30.078125l-8.90625 0l0 -6.390625l8.90625 0l0 6.390625zm34.171875 30.078125l-8.484375 0l0 -13.0625q0 -1.59375 -0.171875 -3.171875q-0.15625 -1.578125 -0.546875 -2.328125q-0.46875 -0.875 -1.375 -1.265625q-0.90625 -0.40625 -2.515625 -0.40625q-1.15625 0 -2.34375 0.375q-1.171875 0.375 -2.5625 1.203125l0 18.65625l-8.4375 0l0 -26.328125l8.4375 0l0 2.90625q2.25 -1.75 4.328125 -2.6875q2.078125 -0.9375 4.609375 -0.9375q4.265625 0 6.65625 2.484375q2.40625 2.484375 2.40625 7.421875l0 17.140625zm33.351562 -3.03125q0 3.71875 -1.0625 6.25q-1.046875 2.53125 -2.9375 3.953125q-1.90625 1.453125 -4.59375 2.09375q-2.671875 0.65625 -6.046875 0.65625q-2.75 0 -5.40625 -0.328125q-2.65625 -0.328125 -4.609375 -0.796875l0 -6.59375l1.03125 0q1.546875 0.609375 3.765625 1.109375q2.234375 0.515625 4.0 0.515625q2.34375 0 3.796875 -0.4375q1.46875 -0.4375 2.25 -1.234375q0.71875 -0.75 1.046875 -1.921875q0.328125 -1.171875 0.328125 -2.8125l0 -0.5q-1.515625 1.25 -3.375 1.984375q-1.84375 0.71875 -4.125 0.71875q-5.53125 0 -8.53125 -3.328125q-3.0 -3.328125 -3.0 -10.125q0 -3.265625 0.90625 -5.625q0.921875 -2.375 2.59375 -4.125q1.546875 -1.640625 3.796875 -2.546875q2.265625 -0.921875 4.640625 -0.921875q2.125 0 3.875 0.5q1.75 0.5 3.171875 1.390625l0.3125 -1.171875l8.171875 0l0 23.296875zm-8.4375 -5.265625l0 -11.9375q-0.71875 -0.296875 -1.78125 -0.46875q-1.046875 -0.1875 -1.890625 -0.1875q-3.328125 0 -5.0 1.921875q-1.65625 1.90625 -1.65625 5.328125q0 3.796875 1.40625 5.296875q1.421875 1.5 4.21875 1.5q1.265625 0 2.484375 -0.390625q1.21875 -0.40625 2.21875 -1.0625zm39.28125 -0.046875q0 4.078125 -3.65625 6.578125q-3.65625 2.5 -10.0 2.5q-3.515625 0 -6.375 -0.671875q-2.859375 -0.65625 -4.59375 -1.453125l0 -6.9375l0.765625 0q0.640625 0.453125 1.46875 0.984375q0.828125 0.515625 2.359375 1.125q1.3125 0.546875 2.96875 0.9375q1.671875 0.375 3.5625 0.375q2.484375 0 3.671875 -0.546875q1.203125 -0.546875 1.203125 -1.625q0 -0.96875 -0.703125 -1.390625q-0.703125 -0.4375 -2.671875 -0.84375q-0.9375 -0.203125 -2.546875 -0.453125q-1.59375 -0.25 -2.90625 -0.59375q-3.59375 -0.9375 -5.328125 -2.921875q-1.734375 -1.984375 -1.734375 -4.9375q0 -3.796875 3.59375 -6.3125q3.609375 -2.515625 9.84375 -2.515625q2.953125 0 5.65625 0.59375q2.703125 0.59375 4.234375 1.28125l0 6.65625l-0.734375 0q-1.875 -1.296875 -4.28125 -2.09375q-2.390625 -0.8125 -4.859375 -0.8125q-2.03125 0 -3.4375 0.5625q-1.390625 0.5625 -1.390625 1.59375q0 0.9375 0.625 1.4375q0.640625 0.484375 2.984375 0.96875q1.296875 0.265625 2.78125 0.515625q1.484375 0.234375 2.984375 0.609375q3.328125 0.875 4.921875 2.734375q1.59375 1.859375 1.59375 4.65625zm59.867188 -9.59375l-4.546875 0l0 -13.265625l-0.5 0l-4.171875 9.28125l-3.1875 0l-4.21875 -9.4375l-0.609375 0l0 13.421875l-4.3125 0l0 -16.96875l7.390625 0l3.421875 8.296875l3.5625 -8.296875l7.171875 0l0 16.96875zm-24.234375 -13.28125l-4.859375 0l0 13.28125l-4.5625 0l0 -13.28125l-4.859375 0l0 -3.6875l14.28125 0l0 3.6875z" fill-rule="nonzero"/></g></svg>