<svg xmlns="http://www.w3.org/2000/svg" xmlns:xlink="http://www.w3.org/1999/xlink" x="0" y="0" width="702" height="501" style="
        width:702px;
        height:501px;
        background: #FFF;
        fill: none;
">


        <svg xmlns="http://www.w3.org/2000/svg" class="role-diagram-draw-area" style="overflow: visible;"><g class="shapes-region" style="stroke: black; fill: none;"><g class="arrow-line"><path class="connection real" stroke-dasharray="3.375 4.0200000000000005" d="  M413,270 L591.33,270.5" style="stroke: rgb(0, 0, 0); stroke-width: 3; fill: none; fill-opacity: 1;"/></g><g class="arrow-line"><path class="connection real" stroke-dasharray="3.375 4.0200000000000005" d="  M66,140.33 L554.68,140.33" style="stroke: rgb(0, 0, 0); stroke-width: 3; fill: none; fill-opacity: 1;"/></g><g class="arrow-line"><path class="connection real" stroke-dasharray="" d="  M413,270 L468.18,129.16" style="stroke: rgb(208, 2, 27); stroke-opacity: 1; stroke-width: 3; fill: none; fill-opacity: 1;"/><g stroke="none" fill="rgb(208,2,27)" fill-opacity="1" transform="matrix(-0.3647142788859858,0.9311194846939223,-0.9311194846939223,-0.3647142788859858,470.00000000000006,124.5)" style="stroke: none; fill: rgb(208, 2, 27); stroke-width: 3;"><path d=" M16.07,-7.72 L0,0 L16.07,7.72 L10.67,0 Z"/></g></g><g class="arrow-line"><path class="connection real" stroke-dasharray="" d="  M93,468.5 C391.75,415.5 480,262.5 412.75,-2.5" style="stroke: rgb(245, 166, 35); stroke-opacity: 1; stroke-width: 3; fill: none; fill-opacity: 1;"/></g><g class="arrow-line"><path class="connection real" stroke-dasharray="" d="  M303.48,371.48 L554.68,140.33" style="stroke: rgb(0, 0, 0); stroke-width: 3; fill: none; fill-opacity: 1;"/></g><g class="composite-shape"><path class="real" d=" M569.16,102.67 C574.51,102.66 578.86,106.99 578.87,112.35 L578.98,168.22 C578.99,173.57 574.66,177.92 569.3,177.93 L540.21,177.99 C534.85,178 530.5,173.67 530.49,168.31 L530.39,112.44 C530.38,107.09 534.71,102.74 540.06,102.73 Z" style="stroke-width: 3; stroke: rgb(0, 0, 0); fill: none; fill-opacity: 1;"/></g><g class="composite-shape"><path class="real" d=" M340.81,356.16 C344.49,360.05 344.32,366.19 340.43,369.87 L299.87,408.29 C295.98,411.97 289.84,411.81 286.16,407.92 L266.15,386.79 C262.47,382.9 262.64,376.76 266.53,373.08 L307.09,334.67 C310.98,330.98 317.12,331.15 320.8,335.04 Z" style="stroke-width: 3; stroke: rgb(0, 0, 0); fill: none; fill-opacity: 1;"/></g><g class="arrow-line"><path class="connection real" stroke-dasharray="3.375 4.0200000000000005" d="  M66,140.33 L303.48,371.48" style="stroke: rgb(0, 0, 0); stroke-width: 3; fill: none; fill-opacity: 1;"/></g><g class="arrow-line"><path class="connection real" stroke-dasharray="" d="  M413,270 L446.91,184.15" style="stroke: rgb(74, 144, 226); stroke-opacity: 1; stroke-width: 3; fill: none; fill-opacity: 1;"/><g stroke="none" fill="rgb(74,144,226)" fill-opacity="1" transform="matrix(-0.36747535658823277,0.9300332587065643,-0.9300332587065643,-0.36747535658823277,448.75,179.5)" style="stroke: none; fill: rgb(74, 144, 226); stroke-width: 3;"><path d=" M16.07,-7.72 L0,0 L16.07,7.72 L10.67,0 Z"/></g></g><g class="arrow-line"><path class="connection real" stroke-dasharray="3.375 4.0200000000000005" d="  M66,140.33 L413,270" style="stroke: rgb(0, 0, 0); stroke-width: 3; fill: none; fill-opacity: 1;"/></g><g class="arrow-line"><path class="connection real" stroke-dasharray="" d="  M413,270 L330.92,238.78" style="stroke: rgb(74, 144, 226); stroke-opacity: 1; stroke-width: 3; fill: none; fill-opacity: 1;"/><g stroke="none" fill="rgb(74,144,226)" fill-opacity="1" transform="matrix(0.934639614689906,0.3555963872880377,-0.3555963872880377,0.934639614689906,326.25,237)" style="stroke: none; fill: rgb(74, 144, 226); stroke-width: 3;"><path d=" M16.07,-7.72 L0,0 L16.07,7.72 L10.67,0 Z"/></g></g><g class="arrow-line"><path class="connection real" stroke-dasharray="" d="  M434.25,218.5 C447.75,215 453.75,220.5 455.25,227.5" style="stroke: rgb(208, 2, 27); stroke-opacity: 1; stroke-width: 2; fill: none; fill-opacity: 1;"/></g><g class="arrow-line"><path class="connection real" stroke-dasharray="3.375 4.0200000000000005" d="  M554.68,140.33 L636,56.83" style="stroke: rgb(0, 0, 0); stroke-width: 3; fill: none; fill-opacity: 1;"/></g><g class="arrow-line"><path class="connection real" stroke-dasharray="3.375 4.0200000000000005" d="  M554.68,140.33 L554.67,21.83" style="stroke: rgb(0, 0, 0); stroke-width: 3; fill: none; fill-opacity: 1;"/></g><g class="arrow-line"><path class="connection real" stroke-dasharray="" d="  M555.75,91 C573.25,84.5 584.75,89 591.75,103.5" style="stroke: rgb(189, 16, 224); stroke-opacity: 1; stroke-width: 2; fill: none; fill-opacity: 1;"/></g><g class="arrow-line"><path class="connection real" stroke-dasharray="" d="  M132.8,165 C135.8,176.2 129.4,184.2 115.8,189" style="stroke: rgb(208, 2, 27); stroke-opacity: 1; stroke-width: 2; fill: none; fill-opacity: 1;"/></g><g class="arrow-line"><path class="connection real" stroke-dasharray="" d="  M170.2,141.4 C181.4,165 167.4,199.8 135.8,209" style="stroke: rgb(189, 16, 224); stroke-opacity: 1; stroke-width: 2; fill: none; fill-opacity: 1;"/></g><g class="arrow-line"><path class="connection real" stroke-dasharray="" d="  M554.68,140.33 L554.67,64.5" style="stroke: rgb(126, 211, 33); stroke-opacity: 1; stroke-width: 3; fill: none; fill-opacity: 1;"/><g stroke="none" fill="rgb(126,211,33)" fill-opacity="1" transform="matrix(0.0001745329243136321,0.9999999847691291,-0.9999999847691291,0.0001745329243136321,554.6666666666666,59.5)" style="stroke: none; fill: rgb(126, 211, 33); stroke-width: 3;"><path d=" M16.07,-7.72 L0,0 L16.07,7.72 L10.67,0 Z"/></g></g><g class="arrow-line"><path class="connection real" stroke-dasharray="" d="  M303.48,371.48 L362.66,316.89" style="stroke: rgb(126, 211, 33); stroke-opacity: 1; stroke-width: 3; fill: none; fill-opacity: 1;"/><g stroke="none" fill="rgb(126,211,33)" fill-opacity="1" transform="matrix(-0.7350329451469032,0.6780313927456969,-0.6780313927456969,-0.7350329451469032,366.33333333333337,313.5)" style="stroke: none; fill: rgb(126, 211, 33); stroke-width: 3;"><path d=" M16.07,-7.72 L0,0 L16.07,7.72 L10.67,0 Z"/></g></g><g class="arrow-line"><path class="connection real" stroke-dasharray="" d="  M451.86,300.19 L338.47,404.81" style="stroke: rgb(0, 0, 0); stroke-width: 1; fill: none; fill-opacity: 1;"/><g stroke="#000" transform="matrix(0.7349145951499598,-0.6781596698680706,0.6781596698680706,0.7349145951499598,337,406.16666666666674)" style="stroke: rgb(0, 0, 0); stroke-width: 1;"><path d=" M10.93,-4.9 Q4.96,-1 0,0 Q4.96,1 10.93,4.9"/></g><g stroke="#000" transform="matrix(-0.7349145951499599,0.6781596698680705,-0.6781596698680705,-0.7349145951499599,453.33333333333337,298.83333333333326)" style="stroke: rgb(0, 0, 0); stroke-width: 1;"><path d=" M10.93,-4.9 Q4.96,-1 0,0 Q4.96,1 10.93,4.9"/></g></g><g class="arrow-line"><path class="connection real" stroke-dasharray="" d="  M590.54,170.86 L456.46,295.8" style="stroke: rgb(0, 0, 0); stroke-width: 1; fill: none; fill-opacity: 1;"/><g stroke="#000" transform="matrix(0.7315917193952464,-0.6817430279161696,0.6817430279161696,0.7315917193952464,454.99999999999994,297.16666666666674)" style="stroke: rgb(0, 0, 0); stroke-width: 1;"><path d=" M10.93,-4.9 Q4.96,-1 0,0 Q4.96,1 10.93,4.9"/></g><g stroke="#000" transform="matrix(-0.731591719395247,0.6817430279161688,-0.6817430279161688,-0.731591719395247,591.9999999999999,169.50000000000023)" style="stroke: rgb(0, 0, 0); stroke-width: 1;"><path d=" M10.93,-4.9 Q4.96,-1 0,0 Q4.96,1 10.93,4.9"/></g></g><g class="arrow-line"><path class="connection real" stroke-dasharray="" d="  M413,270 L476.98,211.54" style="stroke: rgb(74, 144, 226); stroke-opacity: 1; stroke-width: 3; fill: none; fill-opacity: 1;"/><g stroke="none" fill="rgb(74,144,226)" fill-opacity="1" transform="matrix(-0.738219919705044,0.6745601160390959,-0.6745601160390959,-0.738219919705044,480.66666666666674,208.16666666666674)" style="stroke: none; fill: rgb(74, 144, 226); stroke-width: 3;"><path d=" M16.07,-7.72 L0,0 L16.07,7.72 L10.67,0 Z"/></g></g><g class="arrow-line"><path class="connection real" stroke-dasharray="" d="  M413,270 L347.21,204.69" style="stroke: rgb(74, 144, 226); stroke-opacity: 1; stroke-width: 3; fill: none; fill-opacity: 1;"/><g stroke="none" fill="rgb(74,144,226)" fill-opacity="1" transform="matrix(0.7096937075983768,0.704510355775747,-0.704510355775747,0.7096937075983768,343.6666666666667,201.16666666666674)" style="stroke: none; fill: rgb(74, 144, 226); stroke-width: 3;"><path d=" M16.07,-7.72 L0,0 L16.07,7.72 L10.67,0 Z"/></g></g><g class="arrow-line"><path class="connection real" stroke-dasharray="" d="  M446.83,239.08 C463.33,244.83 465.67,256.5 460.33,268.5" style="stroke: rgb(0, 0, 0); stroke-width: 2; fill: none; fill-opacity: 1;"/></g><g class="arrow-line"><path class="connection real" stroke-dasharray="" d="  M89.92,411.26 L176.58,411.37" style="stroke: rgb(74, 144, 226); stroke-opacity: 1; stroke-width: 3; fill: none; fill-opacity: 1;"/><g stroke="none" fill="rgb(74,144,226)" fill-opacity="1" transform="matrix(-0.9999992536874144,-0.0012217301724648734,0.0012217301724648734,-0.9999992536874144,181.5805076419456,411.3754012056128)" style="stroke: none; fill: rgb(74, 144, 226); stroke-width: 3;"><path d=" M16.07,-7.72 L0,0 L16.07,7.72 L10.67,0 Z"/></g></g><g class="arrow-line"><path class="connection real" stroke-dasharray="" d="  M89.92,411.26 L91.26,315.5" style="stroke: rgb(74, 144, 226); stroke-opacity: 1; stroke-width: 3; fill: none; fill-opacity: 1;"/><g stroke="none" fill="rgb(74,144,226)" fill-opacity="1" transform="matrix(-0.014136696038032437,0.9999000719197535,-0.9999000719197535,-0.014136696038032437,91.33333333333331,310.5)" style="stroke: none; fill: rgb(74, 144, 226); stroke-width: 3;"><path d=" M16.07,-7.72 L0,0 L16.07,7.72 L10.67,0 Z"/></g></g><g/></g><g/><g/><g/></svg>
        <svg xmlns="http://www.w3.org/2000/svg" xmlns:xlink="http://www.w3.org/1999/xlink" width="700" height="499" style="width:700px;height:499px;font-family:LatinModern-Math, LatinModern, Asana-Math, Asana;background:#FFF;"><g><g><g><g transform="matrix(1,0,0,1,452.078125,215.828125)"><path transform="matrix(0.017,0,0,-0.017,0,0)" d="M574 574C574 605 563 634 545 656C518 688 476 706 429 706C309 706 218 569 184 433L30 -182C30 -190 34 -194 40 -194L45 -194C50 -194 54 -191 55 -187L123 87C140 29 186 -11 254 -11C311 -11 372 8 424 46C472 82 509 133 523 186C528 208 531 230 531 250C531 290 521 327 501 358C489 375 475 390 458 401C468 407 478 413 488 421C528 451 558 492 569 537C572 550 574 562 574 574ZM518 592C518 576 516 559 511 542C502 504 484 466 453 437C445 430 436 423 427 418C407 426 384 431 360 431C324 431 282 431 275 404C274 402 274 397 274 397C274 373 315 373 350 373C375 373 400 377 425 386C438 376 448 363 455 347C465 326 469 303 469 278C469 250 464 220 457 191C445 145 423 98 384 63C346 30 299 11 255 11C183 11 142 66 142 137C142 153 144 169 148 186L208 428C240 554 318 683 428 683C462 683 490 669 506 643C515 628 518 611 518 592ZM395 403C380 398 365 395 351 395C329 395 298 395 299 399C302 408 335 408 359 408C372 408 384 406 395 403Z" stroke="rgb(208,2,27)" stroke-opacity="1" stroke-width="8" fill="rgb(208,2,27)" fill-opacity="1"></path></g></g></g></g><g><g><g><g transform="matrix(1,0,0,1,264.3984375,200.4296875)"><path transform="matrix(0.017,0,0,-0.017,0,0)" d="M646 553C646 519 630 450 591 411C565 385 512 353 422 353L310 353L375 614C381 638 384 648 403 651C412 652 444 652 464 652C535 652 646 652 646 553ZM755 93C755 105 743 105 743 105C734 105 732 98 730 91C705 17 662 0 639 0C606 0 599 22 599 61C599 92 605 143 609 175C611 189 613 208 613 222C613 299 546 330 519 340C620 362 739 432 739 533C739 619 649 683 518 683L233 683C213 683 204 683 204 663C204 652 213 652 232 652C232 652 253 652 270 650C288 648 297 647 297 634C297 630 296 627 293 615L159 78C149 39 147 31 68 31C50 31 41 31 41 11C41 0 55 0 55 0L181 3L308 0C316 0 328 0 328 20C328 31 319 31 300 31C263 31 235 31 235 49C235 55 237 60 238 66L304 331L423 331C514 331 532 275 532 240C532 225 524 194 518 171C511 143 502 106 502 86C502 -22 622 -22 635 -22C720 -22 755 79 755 93Z" stroke="rgb(0,0,0)" stroke-opacity="1" stroke-width="8" fill="rgb(0,0,0)" fill-opacity="1"></path></g></g></g></g><g><g><g><g transform="matrix(1,0,0,1,134.59375,191.296875)"><path transform="matrix(0.017,0,0,-0.017,0,0)" d="M574 574C574 605 563 634 545 656C518 688 476 706 429 706C309 706 218 569 184 433L30 -182C30 -190 34 -194 40 -194L45 -194C50 -194 54 -191 55 -187L123 87C140 29 186 -11 254 -11C311 -11 372 8 424 46C472 82 509 133 523 186C528 208 531 230 531 250C531 290 521 327 501 358C489 375 475 390 458 401C468 407 478 413 488 421C528 451 558 492 569 537C572 550 574 562 574 574ZM518 592C518 576 516 559 511 542C502 504 484 466 453 437C445 430 436 423 427 418C407 426 384 431 360 431C324 431 282 431 275 404C274 402 274 397 274 397C274 373 315 373 350 373C375 373 400 377 425 386C438 376 448 363 455 347C465 326 469 303 469 278C469 250 464 220 457 191C445 145 423 98 384 63C346 30 299 11 255 11C183 11 142 66 142 137C142 153 144 169 148 186L208 428C240 554 318 683 428 683C462 683 490 669 506 643C515 628 518 611 518 592ZM395 403C380 398 365 395 351 395C329 395 298 395 299 399C302 408 335 408 359 408C372 408 384 406 395 403Z" stroke="rgb(208,2,27)" stroke-opacity="1" stroke-width="8" fill="rgb(208,2,27)" fill-opacity="1"></path></g></g></g></g><g><g><g><g transform="matrix(1,0,0,1,181.4609375,166.296875)"><path transform="matrix(0.017,0,0,-0.017,0,0)" d="M452 667C452 680 444 690 431 693C394 702 352 712 316 712C307 712 298 711 290 710C276 707 261 703 247 694C234 686 223 674 216 660C207 645 204 628 204 609C204 556 235 492 265 436C224 427 184 406 149 376C99 333 65 276 51 218C45 197 43 177 43 157C43 120 52 86 71 57C98 15 145 -11 201 -11C289 -11 361 84 385 182C394 216 399 251 399 284C399 300 398 315 396 330C387 377 366 417 338 452C294 509 231 588 231 633C231 639 232 645 235 650C240 659 248 668 257 673C268 678 278 679 289 679C334 677 362 645 400 629C404 628 408 627 411 627C425 627 440 636 447 649C450 655 452 661 452 667ZM330 244C330 218 327 190 320 163C301 90 265 11 202 11C161 11 131 34 116 68C108 86 104 107 104 129C104 156 110 185 117 213C130 265 150 318 190 360C214 386 245 406 276 415L279 410C299 374 317 336 325 294C329 278 330 261 330 244Z" stroke="rgb(189,16,224)" stroke-opacity="1" stroke-width="8" fill="rgb(189,16,224)" fill-opacity="1"></path></g></g></g></g><g><g><g><g transform="matrix(1,0,0,1,573,81.6953125)"><path transform="matrix(0.017,0,0,-0.017,0,0)" d="M452 667C452 680 444 690 431 693C394 702 352 712 316 712C307 712 298 711 290 710C276 707 261 703 247 694C234 686 223 674 216 660C207 645 204 628 204 609C204 556 235 492 265 436C224 427 184 406 149 376C99 333 65 276 51 218C45 197 43 177 43 157C43 120 52 86 71 57C98 15 145 -11 201 -11C289 -11 361 84 385 182C394 216 399 251 399 284C399 300 398 315 396 330C387 377 366 417 338 452C294 509 231 588 231 633C231 639 232 645 235 650C240 659 248 668 257 673C268 678 278 679 289 679C334 677 362 645 400 629C404 628 408 627 411 627C425 627 440 636 447 649C450 655 452 661 452 667ZM330 244C330 218 327 190 320 163C301 90 265 11 202 11C161 11 131 34 116 68C108 86 104 107 104 129C104 156 110 185 117 213C130 265 150 318 190 360C214 386 245 406 276 415L279 410C299 374 317 336 325 294C329 278 330 261 330 244Z" stroke="rgb(189,16,224)" stroke-opacity="1" stroke-width="8" fill="rgb(189,16,224)" fill-opacity="1"></path></g></g></g></g><g><g><g><g transform="matrix(1,0,0,1,410.1640625,361.578125)"><path transform="matrix(0.017,0,0,-0.017,0,0)" d="M258 683C258 683 258 694 245 694C222 694 149 686 123 684C115 683 104 682 104 663C104 652 114 652 129 652C177 652 178 643 178 635L175 615L49 115C46 104 44 97 44 81C44 24 88 -11 135 -11C168 -11 193 9 210 45C228 83 240 143 240 143C240 153 231 153 228 153C218 153 217 149 214 135C197 70 178 11 138 11C108 11 108 43 108 57C108 81 109 86 114 105Z" stroke="rgb(0,0,0)" stroke-opacity="1" stroke-width="8" fill="rgb(0,0,0)" fill-opacity="1"></path></g></g><g><g><g><g><g transform="matrix(1,0,0,1,415.7421875,365.0796875)"><path transform="matrix(0.0119,0,0,-0.0119,0,0)" d="M646 553C646 519 630 450 591 411C565 385 512 353 422 353L310 353L375 614C381 638 384 648 403 651C412 652 444 652 464 652C535 652 646 652 646 553ZM755 93C755 105 743 105 743 105C734 105 732 98 730 91C705 17 662 0 639 0C606 0 599 22 599 61C599 92 605 143 609 175C611 189 613 208 613 222C613 299 546 330 519 340C620 362 739 432 739 533C739 619 649 683 518 683L233 683C213 683 204 683 204 663C204 652 213 652 232 652C232 652 253 652 270 650C288 648 297 647 297 634C297 630 296 627 293 615L159 78C149 39 147 31 68 31C50 31 41 31 41 11C41 0 55 0 55 0L181 3L308 0C316 0 328 0 328 20C328 31 319 31 300 31C263 31 235 31 235 49C235 55 237 60 238 66L304 331L423 331C514 331 532 275 532 240C532 225 524 194 518 171C511 143 502 106 502 86C502 -22 622 -22 635 -22C720 -22 755 79 755 93Z" stroke="rgb(0,0,0)" stroke-opacity="1" stroke-width="8" fill="rgb(0,0,0)" fill-opacity="1"></path></g></g></g></g></g></g></g><g><g><g><g transform="matrix(1,0,0,1,515.4140625,261.078125)"><path transform="matrix(0.017,0,0,-0.017,0,0)" d="M258 683C258 683 258 694 245 694C222 694 149 686 123 684C115 683 104 682 104 663C104 652 114 652 129 652C177 652 178 643 178 635L175 615L49 115C46 104 44 97 44 81C44 24 88 -11 135 -11C168 -11 193 9 210 45C228 83 240 143 240 143C240 153 231 153 228 153C218 153 217 149 214 135C197 70 178 11 138 11C108 11 108 43 108 57C108 81 109 86 114 105Z" stroke="rgb(0,0,0)" stroke-opacity="1" stroke-width="8" fill="rgb(0,0,0)" fill-opacity="1"></path></g></g><g><g><g><g><g transform="matrix(1,0,0,1,520.9921875,264.5796875)"><path transform="matrix(0.0119,0,0,-0.0119,0,0)" d="M748 653C751 680 746 680 721 680L231 680C211 680 201 680 201 660C201 649 210 649 229 649C266 649 294 649 294 631C294 627 294 625 289 607L157 78C147 39 145 31 66 31C49 31 38 31 38 12C38 0 50 0 53 0L185 3L334 0C343 0 355 0 355 19C355 27 349 30 349 30C346 31 344 31 321 31C299 31 294 31 269 33C240 36 237 40 237 53C237 53 237 61 241 76L303 325L400 325C475 325 483 309 483 280C483 273 483 261 476 231C474 226 473 220 473 220C473 212 479 208 485 208C495 208 495 211 500 229L555 446C558 457 558 459 558 462C558 462 556 473 546 473C536 473 535 468 531 452C510 374 487 356 402 356L311 356L375 610C384 645 385 649 429 649L561 649C684 649 707 616 707 539C707 516 707 512 704 485C702 472 702 470 702 467C702 462 705 455 714 455C725 455 726 461 728 480Z" stroke="rgb(0,0,0)" stroke-opacity="1" stroke-width="8" fill="rgb(0,0,0)" fill-opacity="1"></path></g></g></g></g></g></g></g><g><g><g><g><g><g><g transform="matrix(1,0,0,1,454.9140625,192.078125)"><path transform="matrix(0.017,0,0,-0.017,0,0)" d="M704 666C704 677 694 677 677 677L122 677C98 677 97 676 90 657L30 481C29 479 24 463 24 463C24 457 29 452 36 452C46 452 47 457 53 473C107 628 133 646 281 646L320 646C348 646 348 642 348 634C348 628 345 616 344 613L210 79C201 42 198 31 91 31C55 31 49 31 49 12C49 0 60 0 66 0C93 0 121 2 148 2L233 3L316 2C345 2 375 0 403 0C413 0 425 0 425 20C425 31 417 31 391 31C366 31 353 31 327 33C298 36 290 39 290 55C290 55 290 61 294 76L427 607C434 635 438 641 450 644C459 646 492 646 513 646C614 646 659 642 659 564C659 549 655 510 651 484C650 480 648 468 648 465C648 459 651 452 660 452C671 452 673 460 675 475L702 649C703 653 704 663 704 666Z" stroke="rgb(74,144,226)" stroke-opacity="1" stroke-width="8" fill="rgb(74,144,226)" fill-opacity="1"></path></g></g></g></g><svg x="454.9140625" overflow="visible" y="169.078125" height="10" width="13.359375"><path d=" M 13.36 4.85 l -3.15 -3.32 l -0.49 0.52 l 1.93 2.33 h -0.15 v 0.90 h 0.15 l -1.93 2.33 l 0.49 0.52 z  M 1.68 5.23 h 11.22 v -0.90 h -11.22 z" style="fill:rgb(74,144,226);fill-opacity:1;stroke-width:1px;stroke:none;stroke-opacity:1;"></path></svg></g></g></g><g><g><g><g><g><g><g transform="matrix(1,0,0,1,324.828125,233.5)"><path transform="matrix(0.017,0,0,-0.017,0,0)" d="M881 672C881 672 881 683 868 683C835 683 800 680 767 680C733 680 698 683 665 683C659 683 647 683 647 663C647 652 657 652 665 652C722 651 733 630 733 608C733 605 731 590 730 587L618 142L397 664C389 682 388 683 365 683L231 683C211 683 202 683 202 663C202 652 211 652 230 652C235 652 298 652 298 643L164 106C154 66 137 34 56 31C50 31 39 30 39 11C39 4 44 0 52 0C84 0 119 3 152 3C186 3 222 0 255 0C260 0 273 0 273 20C273 30 264 31 253 31C195 33 187 55 187 75C187 82 188 87 191 98L323 626C327 620 327 618 332 608L581 19C588 2 591 0 600 0C611 0 611 3 616 21L756 578C766 618 784 649 864 652C869 652 881 653 881 672Z" stroke="rgb(74,144,226)" stroke-opacity="1" stroke-width="8" fill="rgb(74,144,226)" fill-opacity="1"></path></g></g></g></g><svg x="324.828125" overflow="visible" y="210.5" height="10" width="16.4375"><path d=" M 16.44 4.85 l -3.15 -3.32 l -0.49 0.52 l 1.93 2.33 h -0.15 v 0.90 h 0.15 l -1.93 2.33 l 0.49 0.52 z  M 1.68 5.23 h 14.30 v -0.90 h -14.30 z" style="fill:rgb(74,144,226);fill-opacity:1;stroke-width:1px;stroke:none;stroke-opacity:1;"></path></svg></g></g></g><g><g><g><g><g><g><g transform="matrix(1,0,0,1,469.375,119.4140625)"><path transform="matrix(0.017,0,0,-0.017,0,0)" d="M468 372C468 426 442 442 424 442C399 442 375 416 375 394C375 381 380 375 391 364C412 344 425 318 425 282C425 240 364 11 247 11C196 11 173 46 173 98C173 154 200 227 231 310C238 327 243 341 243 360C243 405 211 442 161 442C67 442 29 297 29 288C29 278 41 278 41 278C51 278 52 280 57 296C86 397 129 420 158 420C166 420 183 420 183 388C183 363 173 336 166 318C122 202 109 156 109 113C109 5 197 -11 243 -11C411 -11 468 320 468 372Z" stroke="rgb(208,2,27)" stroke-opacity="1" stroke-width="8" fill="rgb(208,2,27)" fill-opacity="1"></path></g></g></g></g><svg x="469.25" overflow="visible" y="100.4140625" height="10" width="9.34375"><path d=" M 9.34 4.85 l -3.15 -3.32 l -0.49 0.52 l 1.93 2.33 h -0.15 v 0.90 h 0.15 l -1.93 2.33 l 0.49 0.52 z  M 1.68 5.23 h 7.20 v -0.90 h -7.20 z" style="fill:rgb(208,2,27);fill-opacity:1;stroke-width:1px;stroke:none;stroke-opacity:1;"></path></svg></g></g></g><g><g><g><g transform="matrix(1,0,0,1,515,71.5)"><path transform="matrix(0.017,0,0,-0.017,0,0)" d="M748 653C751 680 746 680 721 680L231 680C211 680 201 680 201 660C201 649 210 649 229 649C266 649 294 649 294 631C294 627 294 625 289 607L157 78C147 39 145 31 66 31C49 31 38 31 38 12C38 0 50 0 53 0L185 3L334 0C343 0 355 0 355 19C355 27 349 30 349 30C346 31 344 31 321 31C299 31 294 31 269 33C240 36 237 40 237 53C237 53 237 61 241 76L303 325L400 325C475 325 483 309 483 280C483 273 483 261 476 231C474 226 473 220 473 220C473 212 479 208 485 208C495 208 495 211 500 229L555 446C558 457 558 459 558 462C558 462 556 473 546 473C536 473 535 468 531 452C510 374 487 356 402 356L311 356L375 610C384 645 385 649 429 649L561 649C684 649 707 616 707 539C707 516 707 512 704 485C702 472 702 470 702 467C702 462 705 455 714 455C725 455 726 461 728 480Z" stroke="rgb(126,211,33)" stroke-opacity="1" stroke-width="8" fill="rgb(126,211,33)" fill-opacity="1"></path></g></g><g><g><g><g><g transform="matrix(1,0,0,1,528.5859375,74.5015625)"><path transform="matrix(0.0119,0,0,-0.0119,0,0)" d="M527 376C527 428 468 442 434 442C376 442 341 389 329 366C304 432 250 442 221 442C117 442 60 313 60 288C60 278 72 278 72 278C80 278 83 280 85 289C119 395 185 420 219 420C238 420 273 411 273 353C273 322 256 255 219 115C203 53 168 11 124 11C118 11 95 11 74 24C99 29 121 50 121 78C121 105 99 113 84 113C54 113 29 87 29 55C29 9 79 -11 123 -11C189 -11 225 59 228 65C240 28 276 -11 336 -11C439 -11 496 118 496 143C496 153 487 153 484 153C475 153 473 149 471 142C438 35 370 11 338 11C299 11 283 43 283 77C283 99 289 121 300 165L334 302C340 328 363 420 433 420C438 420 462 420 483 407C455 402 435 377 435 353C435 337 446 318 473 318C495 318 527 336 527 376ZM1320 653C1323 680 1318 680 1293 680L803 680C783 680 773 680 773 660C773 649 782 649 801 649C838 649 866 649 866 631C866 627 866 625 861 607L729 78C719 39 717 31 638 31C621 31 610 31 610 12C610 0 622 0 625 0L757 3L906 0C915 0 927 0 927 19C927 27 921 30 921 30C918 31 916 31 893 31C871 31 866 31 841 33C812 36 809 40 809 53C809 53 809 61 813 76L875 325L972 325C1047 325 1055 309 1055 280C1055 273 1055 261 1048 231C1046 226 1045 220 1045 220C1045 212 1051 208 1057 208C1067 208 1067 211 1072 229L1127 446C1130 457 1130 459 1130 462C1130 462 1128 473 1118 473C1108 473 1107 468 1103 452C1082 374 1059 356 974 356L883 356L947 610C956 645 957 649 1001 649L1133 649C1256 649 1279 616 1279 539C1279 516 1279 512 1276 485C1274 472 1274 470 1274 467C1274 462 1277 455 1286 455C1297 455 1298 461 1300 480Z" stroke="rgb(126,211,33)" stroke-opacity="1" stroke-width="8" fill="rgb(126,211,33)" fill-opacity="1"></path></g></g></g></g></g></g></g><g><g><g><g transform="matrix(1,0,0,1,318,322.5)"><path transform="matrix(0.017,0,0,-0.017,0,0)" d="M748 653C751 680 746 680 721 680L231 680C211 680 201 680 201 660C201 649 210 649 229 649C266 649 294 649 294 631C294 627 294 625 289 607L157 78C147 39 145 31 66 31C49 31 38 31 38 12C38 0 50 0 53 0L185 3L334 0C343 0 355 0 355 19C355 27 349 30 349 30C346 31 344 31 321 31C299 31 294 31 269 33C240 36 237 40 237 53C237 53 237 61 241 76L303 325L400 325C475 325 483 309 483 280C483 273 483 261 476 231C474 226 473 220 473 220C473 212 479 208 485 208C495 208 495 211 500 229L555 446C558 457 558 459 558 462C558 462 556 473 546 473C536 473 535 468 531 452C510 374 487 356 402 356L311 356L375 610C384 645 385 649 429 649L561 649C684 649 707 616 707 539C707 516 707 512 704 485C702 472 702 470 702 467C702 462 705 455 714 455C725 455 726 461 728 480Z" stroke="rgb(126,211,33)" stroke-opacity="1" stroke-width="8" fill="rgb(126,211,33)" fill-opacity="1"></path></g></g><g><g><g><g><g transform="matrix(1,0,0,1,331.5859375,325.5015625)"><path transform="matrix(0.0119,0,0,-0.0119,0,0)" d="M527 376C527 428 468 442 434 442C376 442 341 389 329 366C304 432 250 442 221 442C117 442 60 313 60 288C60 278 72 278 72 278C80 278 83 280 85 289C119 395 185 420 219 420C238 420 273 411 273 353C273 322 256 255 219 115C203 53 168 11 124 11C118 11 95 11 74 24C99 29 121 50 121 78C121 105 99 113 84 113C54 113 29 87 29 55C29 9 79 -11 123 -11C189 -11 225 59 228 65C240 28 276 -11 336 -11C439 -11 496 118 496 143C496 153 487 153 484 153C475 153 473 149 471 142C438 35 370 11 338 11C299 11 283 43 283 77C283 99 289 121 300 165L334 302C340 328 363 420 433 420C438 420 462 420 483 407C455 402 435 377 435 353C435 337 446 318 473 318C495 318 527 336 527 376ZM1218 553C1218 519 1202 450 1163 411C1137 385 1084 353 994 353L882 353L947 614C953 638 956 648 975 651C984 652 1016 652 1036 652C1107 652 1218 652 1218 553ZM1327 93C1327 105 1315 105 1315 105C1306 105 1304 98 1302 91C1277 17 1234 0 1211 0C1178 0 1171 22 1171 61C1171 92 1177 143 1181 175C1183 189 1185 208 1185 222C1185 299 1118 330 1091 340C1192 362 1311 432 1311 533C1311 619 1221 683 1090 683L805 683C785 683 776 683 776 663C776 652 785 652 804 652C804 652 825 652 842 650C860 648 869 647 869 634C869 630 868 627 865 615L731 78C721 39 719 31 640 31C622 31 613 31 613 11C613 0 627 0 627 0L753 3L880 0C888 0 900 0 900 20C900 31 891 31 872 31C835 31 807 31 807 49C807 55 809 60 810 66L876 331L995 331C1086 331 1104 275 1104 240C1104 225 1096 194 1090 171C1083 143 1074 106 1074 86C1074 -22 1194 -22 1207 -22C1292 -22 1327 79 1327 93Z" stroke="rgb(126,211,33)" stroke-opacity="1" stroke-width="8" fill="rgb(126,211,33)" fill-opacity="1"></path></g></g></g></g></g></g></g><g><g><g><g><g><g><g transform="matrix(1,0,0,1,489.9140625,220.75)"><path transform="matrix(0.017,0,0,-0.017,0,0)" d="M527 376C527 428 468 442 434 442C376 442 341 389 329 366C304 432 250 442 221 442C117 442 60 313 60 288C60 278 72 278 72 278C80 278 83 280 85 289C119 395 185 420 219 420C238 420 273 411 273 353C273 322 256 255 219 115C203 53 168 11 124 11C118 11 95 11 74 24C99 29 121 50 121 78C121 105 99 113 84 113C54 113 29 87 29 55C29 9 79 -11 123 -11C189 -11 225 59 228 65C240 28 276 -11 336 -11C439 -11 496 118 496 143C496 153 487 153 484 153C475 153 473 149 471 142C438 35 370 11 338 11C299 11 283 43 283 77C283 99 289 121 300 165L334 302C340 328 363 420 433 420C438 420 462 420 483 407C455 402 435 377 435 353C435 337 446 318 473 318C495 318 527 336 527 376Z" stroke="rgb(74,144,226)" stroke-opacity="1" stroke-width="8" fill="rgb(74,144,226)" fill-opacity="1"></path></g></g></g></g><svg x="489.9140625" overflow="visible" y="201.75" height="10" width="10.5703125"><path d=" M 10.57 4.85 l -3.15 -3.32 l -0.49 0.52 l 1.93 2.33 h -0.15 v 0.90 h 0.15 l -1.93 2.33 l 0.49 0.52 z  M 1.68 5.23 h 8.43 v -0.90 h -8.43 z" style="fill:rgb(74,144,226);fill-opacity:1;stroke-width:1px;stroke:none;stroke-opacity:1;"></path></svg></g><g><g><g><g><g transform="matrix(1,0,0,1,500.1484375,227.540625)"><path transform="matrix(0.0119,0,0,-0.0119,0,0)" d="M415 282C415 373 362 442 282 442C236 442 195 413 165 382L239 683C239 683 239 694 226 694C203 694 130 686 104 684C96 683 85 682 85 664C85 652 94 652 109 652C157 652 159 645 159 635C159 628 150 594 145 573L63 247C51 197 47 181 47 146C47 51 100 -11 174 -11C292 -11 415 138 415 282ZM343 326C343 267 310 152 292 114C259 47 213 11 174 11C140 11 107 38 107 112C107 131 107 150 123 213L145 305C151 327 151 329 160 340C209 405 254 420 280 420C316 420 343 390 343 326Z" stroke="rgb(74,144,226)" stroke-opacity="1" stroke-width="8" fill="rgb(74,144,226)" fill-opacity="1"></path></g></g></g></g></g></g></g><g><g><g><g><g><g><g transform="matrix(1,0,0,1,362.9921875,212.078125)"><path transform="matrix(0.017,0,0,-0.017,0,0)" d="M490 404C490 422 476 431 461 431C451 431 435 425 426 410C424 405 416 374 412 356L392 276L347 96C343 81 300 11 234 11C183 11 172 55 172 92C172 138 189 200 223 288C239 329 243 340 243 360C243 405 211 442 161 442C66 442 29 297 29 288C29 278 41 278 41 278C51 278 52 280 57 296C84 390 124 420 158 420C166 420 183 420 183 388C183 363 173 337 166 318C126 212 108 155 108 108C108 19 171 -11 230 -11C269 -11 303 6 331 34C318 -18 306 -67 266 -120C240 -154 202 -183 156 -183C142 -183 97 -180 80 -141C96 -141 109 -141 123 -129C133 -120 143 -107 143 -88C143 -57 116 -53 106 -53C83 -53 50 -69 50 -118C50 -168 94 -205 156 -205C259 -205 362 -114 390 -1L486 381C490 395 490 397 490 404Z" stroke="rgb(74,144,226)" stroke-opacity="1" stroke-width="8" fill="rgb(74,144,226)" fill-opacity="1"></path></g></g></g></g><svg x="362.9140625" overflow="visible" y="193.078125" height="10" width="9.34375"><path d=" M 9.34 4.85 l -3.15 -3.32 l -0.49 0.52 l 1.93 2.33 h -0.15 v 0.90 h 0.15 l -1.93 2.33 l 0.49 0.52 z  M 1.68 5.23 h 7.20 v -0.90 h -7.20 z" style="fill:rgb(74,144,226);fill-opacity:1;stroke-width:1px;stroke:none;stroke-opacity:1;"></path></svg></g><g><g><g><g><g transform="matrix(1,0,0,1,371.921875,218.86875)"><path transform="matrix(0.0119,0,0,-0.0119,0,0)" d="M415 282C415 373 362 442 282 442C236 442 195 413 165 382L239 683C239 683 239 694 226 694C203 694 130 686 104 684C96 683 85 682 85 664C85 652 94 652 109 652C157 652 159 645 159 635C159 628 150 594 145 573L63 247C51 197 47 181 47 146C47 51 100 -11 174 -11C292 -11 415 138 415 282ZM343 326C343 267 310 152 292 114C259 47 213 11 174 11C140 11 107 38 107 112C107 131 107 150 123 213L145 305C151 327 151 329 160 340C209 405 254 420 280 420C316 420 343 390 343 326Z" stroke="rgb(74,144,226)" stroke-opacity="1" stroke-width="8" fill="rgb(74,144,226)" fill-opacity="1"></path></g></g></g></g></g></g></g><g><g><g><g transform="matrix(1,0,0,1,467.4140625,250.1640625)"><path transform="matrix(0.017,0,0,-0.017,0,0)" d="M619 304C619 382 580 442 505 442C360 442 300 248 240 53C132 73 76 129 76 201C76 229 99 339 159 408C167 417 167 421 167 421C167 425 165 431 155 431C127 431 50 286 50 190C50 96 116 23 223 -2L170 -170C166 -183 165 -185 165 -190C165 -212 184 -218 194 -218C199 -218 221 -215 231 -192C234 -184 239 -151 266 -9C275 -10 282 -11 299 -11C465 -11 619 146 619 304ZM591 282C591 169 462 47 308 47C300 47 298 47 290 48C278 48 277 49 277 52L297 160C328 288 406 384 495 384C564 384 591 330 591 282Z" stroke="rgb(0,0,0)" stroke-opacity="1" stroke-width="8" fill="rgb(0,0,0)" fill-opacity="1"></path></g></g></g></g><g><g><g><g><g><g><g transform="matrix(1,0,0,1,178.328125,402.5)"><path transform="matrix(0.017,0,0,-0.017,0,0)" d="M527 376C527 428 468 442 434 442C376 442 341 389 329 366C304 432 250 442 221 442C117 442 60 313 60 288C60 278 72 278 72 278C80 278 83 280 85 289C119 395 185 420 219 420C238 420 273 411 273 353C273 322 256 255 219 115C203 53 168 11 124 11C118 11 95 11 74 24C99 29 121 50 121 78C121 105 99 113 84 113C54 113 29 87 29 55C29 9 79 -11 123 -11C189 -11 225 59 228 65C240 28 276 -11 336 -11C439 -11 496 118 496 143C496 153 487 153 484 153C475 153 473 149 471 142C438 35 370 11 338 11C299 11 283 43 283 77C283 99 289 121 300 165L334 302C340 328 363 420 433 420C438 420 462 420 483 407C455 402 435 377 435 353C435 337 446 318 473 318C495 318 527 336 527 376Z" stroke="rgb(74,144,226)" stroke-opacity="1" stroke-width="8" fill="rgb(74,144,226)" fill-opacity="1"></path></g></g></g></g><svg x="178.328125" overflow="visible" y="383.5" height="10" width="10.5703125"><path d=" M 10.57 4.85 l -3.15 -3.32 l -0.49 0.52 l 1.93 2.33 h -0.15 v 0.90 h 0.15 l -1.93 2.33 l 0.49 0.52 z  M 1.68 5.23 h 8.43 v -0.90 h -8.43 z" style="fill:rgb(74,144,226);fill-opacity:1;stroke-width:1px;stroke:none;stroke-opacity:1;"></path></svg></g><g><g><g><g><g transform="matrix(1,0,0,1,188.5625,409.290625)"><path transform="matrix(0.0119,0,0,-0.0119,0,0)" d="M284 625C284 645 270 661 247 661C220 661 193 635 193 608C193 589 207 572 231 572C254 572 284 595 284 625ZM293 143C293 153 284 153 281 153C271 153 271 150 266 135C248 72 215 11 164 11C147 11 140 21 140 44C140 69 146 83 169 144L208 249C220 278 220 280 230 307C238 327 243 341 243 360C243 405 211 442 161 442C67 442 29 297 29 288C29 278 41 278 41 278C51 278 52 280 57 296C84 390 124 420 158 420C166 420 183 420 183 388C183 367 176 346 172 336C164 310 119 194 103 151C93 125 80 92 80 71C80 24 114 -11 162 -11C256 -11 293 134 293 143Z" stroke="rgb(74,144,226)" stroke-opacity="1" stroke-width="8" fill="rgb(74,144,226)" fill-opacity="1"></path></g></g></g></g></g></g></g><g><g><g><g><g><g><g transform="matrix(1,0,0,1,103.40625,315.828125)"><path transform="matrix(0.017,0,0,-0.017,0,0)" d="M490 404C490 422 476 431 461 431C451 431 435 425 426 410C424 405 416 374 412 356L392 276L347 96C343 81 300 11 234 11C183 11 172 55 172 92C172 138 189 200 223 288C239 329 243 340 243 360C243 405 211 442 161 442C66 442 29 297 29 288C29 278 41 278 41 278C51 278 52 280 57 296C84 390 124 420 158 420C166 420 183 420 183 388C183 363 173 337 166 318C126 212 108 155 108 108C108 19 171 -11 230 -11C269 -11 303 6 331 34C318 -18 306 -67 266 -120C240 -154 202 -183 156 -183C142 -183 97 -180 80 -141C96 -141 109 -141 123 -129C133 -120 143 -107 143 -88C143 -57 116 -53 106 -53C83 -53 50 -69 50 -118C50 -168 94 -205 156 -205C259 -205 362 -114 390 -1L486 381C490 395 490 397 490 404Z" stroke="rgb(74,144,226)" stroke-opacity="1" stroke-width="8" fill="rgb(74,144,226)" fill-opacity="1"></path></g></g></g></g><svg x="103.328125" overflow="visible" y="296.828125" height="10" width="9.34375"><path d=" M 9.34 4.85 l -3.15 -3.32 l -0.49 0.52 l 1.93 2.33 h -0.15 v 0.90 h 0.15 l -1.93 2.33 l 0.49 0.52 z  M 1.68 5.23 h 7.20 v -0.90 h -7.20 z" style="fill:rgb(74,144,226);fill-opacity:1;stroke-width:1px;stroke:none;stroke-opacity:1;"></path></svg></g><g><g><g><g><g transform="matrix(1,0,0,1,112.3359375,322.61875)"><path transform="matrix(0.0119,0,0,-0.0119,0,0)" d="M284 625C284 645 270 661 247 661C220 661 193 635 193 608C193 589 207 572 231 572C254 572 284 595 284 625ZM293 143C293 153 284 153 281 153C271 153 271 150 266 135C248 72 215 11 164 11C147 11 140 21 140 44C140 69 146 83 169 144L208 249C220 278 220 280 230 307C238 327 243 341 243 360C243 405 211 442 161 442C67 442 29 297 29 288C29 278 41 278 41 278C51 278 52 280 57 296C84 390 124 420 158 420C166 420 183 420 183 388C183 367 176 346 172 336C164 310 119 194 103 151C93 125 80 92 80 71C80 24 114 -11 162 -11C256 -11 293 134 293 143Z" stroke="rgb(74,144,226)" stroke-opacity="1" stroke-width="8" fill="rgb(74,144,226)" fill-opacity="1"></path></g></g></g></g></g></g></g></svg>
</svg>
